<?xml version="1.0" standalone="no"?>
<!DOCTYPE svg PUBLIC "-//W3C//DTD SVG 20010904//EN"
 "http://www.w3.org/TR/2001/REC-SVG-20010904/DTD/svg10.dtd">
<svg version="1.0" xmlns="http://www.w3.org/2000/svg"
 width="700.000000pt" height="700.000000pt" viewBox="0 0 700.000000 700.000000"
 preserveAspectRatio="xMidYMid meet">
<metadata>
Created by potrace 1.14, written by Peter Selinger 2001-2017
</metadata>
<g transform="translate(0.000000,700.000000) scale(0.100000,-0.100000)"
fill="#000000" stroke="none">
<path d="M2292 6320 c-373 -85 -666 -405 -708 -776 -21 -184 7 -358 84 -514
20 -41 39 -77 42 -80 3 -3 18 -25 34 -50 40 -61 159 -178 231 -227 361 -243
851 -199 1156 106 123 122 230 324 255 480 3 18 8 43 10 55 6 30 5 182 -1 236
-44 355 -316 662 -674 762 -109 30 -315 33 -429 8z m318 -466 c78 -23 119 -46
178 -99 91 -82 142 -196 142 -320 1 -95 -5 -119 -45 -200 -92 -187 -286 -282
-490 -240 -284 60 -432 375 -299 637 30 59 101 138 152 170 103 63 253 85 362
52z"/>
<path d="M4332 6324 c-321 -70 -584 -300 -682 -594 -22 -65 -24 -74 -36 -140
-4 -19 -8 -44 -10 -55 -7 -32 -6 -166 1 -220 58 -464 469 -815 935 -799 280
10 530 140 699 364 338 449 196 1087 -302 1355 -58 31 -181 77 -244 91 -61 13
-298 12 -361 -2z m283 -466 c149 -31 282 -161 325 -318 19 -66 15 -187 -8
-251 -67 -192 -242 -312 -442 -303 -237 11 -423 206 -421 441 1 88 6 113 40
187 64 138 198 237 346 253 28 3 51 6 53 8 3 3 44 -3 107 -17z"/>
<path d="M735 4948 c-275 -37 -521 -213 -648 -465 -82 -162 -107 -391 -62
-570 95 -375 407 -629 794 -647 91 -4 206 13 294 43 265 91 460 294 544 565
20 63 26 108 29 206 2 69 -1 143 -6 165 -5 22 -11 51 -13 65 -18 92 -81 224
-157 324 -66 86 -204 196 -310 244 -138 64 -314 91 -465 70z m215 -477 c98
-27 183 -101 237 -203 25 -48 28 -63 28 -153 0 -87 -3 -107 -26 -156 -140
-298 -549 -297 -688 1 -22 47 -26 69 -26 150 0 82 4 103 27 152 81 174 266
260 448 209z"/>
<path d="M6077 4954 c-1 -1 -22 -4 -47 -8 -340 -44 -644 -335 -707 -676 -15
-82 -8 -289 11 -365 97 -372 430 -635 806 -637 128 -1 177 7 291 45 118 40
237 117 341 220 77 76 162 230 199 362 27 95 32 303 11 395 -56 235 -203 434
-407 553 -46 27 -240 105 -240 97 0 -1 -22 1 -49 5 -46 7 -203 14 -209 9z
m216 -494 c79 -30 158 -104 199 -188 30 -61 33 -74 33 -162 0 -81 -4 -103 -27
-151 -117 -252 -445 -301 -626 -94 -161 182 -104 473 113 580 99 49 204 54
308 15z"/>
<path d="M4200 4109 c-236 -18 -471 -122 -652 -291 l-46 -43 -54 48 c-156 139
-330 231 -523 273 -64 14 -309 13 -385 -1 -225 -44 -409 -143 -575 -310 -100
-101 -112 -114 -161 -191 -268 -418 -275 -934 -20 -1439 92 -181 187 -322 336
-500 43 -51 282 -287 349 -345 228 -196 510 -389 861 -591 92 -52 97 -54 170
-54 68 1 81 4 145 39 288 159 679 422 830 559 11 10 48 42 83 70 95 79 309
301 387 402 38 50 72 92 75 95 18 15 130 197 180 293 86 164 156 355 174 477
3 19 8 45 10 58 10 48 18 149 18 224 -1 343 -122 652 -347 885 -231 241 -542
365 -855 342z m-1380 -474 c160 -24 327 -144 451 -325 28 -41 64 -86 80 -100
83 -72 218 -71 300 2 15 12 49 55 76 95 105 153 217 249 348 299 79 29 111 35
195 36 297 3 577 -249 645 -581 18 -86 17 -256 -2 -357 -41 -222 -155 -454
-334 -680 -70 -88 -287 -308 -364 -369 -27 -22 -56 -46 -64 -53 -67 -64 -345
-257 -531 -370 -133 -80 -107 -82 -265 16 -377 231 -672 470 -874 707 -73 85
-151 186 -178 230 -99 159 -160 295 -199 440 -33 125 -42 341 -18 444 67 290
275 508 534 561 83 17 110 18 200 5z"/>
</g>
</svg>
